<?xml version="1.0" standalone="no"?>
<!DOCTYPE svg PUBLIC "-//W3C//DTD SVG 20010904//EN"
 "http://www.w3.org/TR/2001/REC-SVG-20010904/DTD/svg10.dtd">
<svg version="1.0" xmlns="http://www.w3.org/2000/svg"
 width="482.000000pt" height="482.000000pt" viewBox="0 0 482.000000 482.000000"
 preserveAspectRatio="xMidYMid meet">
<metadata>
Created by potrace 1.11, written by Peter Selinger 2001-2013
</metadata>
<g transform="translate(0.000000,482.000000) scale(0.100000,-0.100000)"
fill="#000000" stroke="none">
<path d="M390 4327 c-141 -48 -236 -132 -303 -266 l-42 -84 0 -1572 0 -1572
42 -85 c51 -102 124 -179 214 -227 120 -65 -21 -61 2115 -61 2152 0 1990 -5
2116 62 70 37 166 135 202 206 59 116 56 31 56 1677 0 1663 4 1564 -61 1686
-38 71 -136 167 -207 203 -117 59 11 56 -2117 56 l-1950 -1 -65 -22z m2210
-782 l0 -245 -125 0 -125 0 0 -245 0 -245 920 0 920 0 0 -249 0 -248 -52 -6
c-75 -9 -149 -50 -207 -112 -74 -81 -91 -137 -91 -290 0 -69 -2 -125 -4 -125
-2 0 -59 34 -127 75 l-122 76 -124 -75 -123 -74 0 128 c0 135 15 236 49 334
12 33 21 61 21 63 0 1 -511 3 -1135 3 l-1135 0 0 -219 0 -219 -96 -57 c-140
-83 -300 -144 -381 -145 l-23 0 0 570 0 570 120 0 120 0 0 245 0 245 -120 0
-120 0 0 245 0 245 980 0 980 0 0 -245z m-138 -1899 c181 -116 384 -186 539
-186 136 0 327 63 491 161 45 27 87 49 94 49 8 0 37 -15 66 -34 132 -84 330
-160 454 -173 l69 -8 3 -217 2 -218 -64 0 c-120 0 -310 48 -467 118 l-63 28
-100 -42 c-56 -24 -146 -55 -201 -70 -93 -26 -114 -28 -285 -28 -169 0 -194 2
-282 26 -54 15 -137 43 -185 64 -49 20 -104 37 -123 37 -19 0 -74 -17 -123
-37 -48 -21 -131 -49 -185 -64 -88 -24 -113 -26 -282 -26 -171 0 -192 2 -285
28 -55 15 -145 46 -201 70 l-100 42 -63 -28 c-157 -70 -347 -118 -467 -118
l-64 0 2 218 3 217 69 8 c124 13 322 89 454 173 29 19 58 34 66 34 7 0 49 -22
94 -49 104 -62 225 -113 338 -141 169 -43 340 -15 549 87 44 22 105 55 135 75
30 20 56 37 57 37 2 1 26 -14 55 -33z"/>
<path d="M1380 3055 l0 -245 235 0 235 0 0 245 0 245 -235 0 -235 0 0 -245z"/>
</g>
</svg>
