<?xml version="1.0" encoding="UTF-8" standalone="no"?>
<!-- Created with Inkscape (http://www.inkscape.org/) -->

<svg
   xmlns:dc="http://purl.org/dc/elements/1.1/"
   xmlns:cc="http://creativecommons.org/ns#"
   xmlns:rdf="http://www.w3.org/1999/02/22-rdf-syntax-ns#"
   xmlns:svg="http://www.w3.org/2000/svg"
   xmlns="http://www.w3.org/2000/svg"
   xmlns:sodipodi="http://sodipodi.sourceforge.net/DTD/sodipodi-0.dtd"
   xmlns:inkscape="http://www.inkscape.org/namespaces/inkscape"
   width="344.00125mm"
   height="367.60452mm"
   viewBox="0 0 344.00125 367.60453"
   version="1.1"
   id="svg8"
   inkscape:version="0.92.4 (5da689c313, 2019-01-14)"
   sodipodi:docname="epinio.svg">
  <defs
     id="defs2" />
  <sodipodi:namedview
     id="base"
     pagecolor="#ffffff"
     bordercolor="#666666"
     borderopacity="1.0"
     inkscape:pageopacity="0.0"
     inkscape:pageshadow="2"
     inkscape:zoom="0.49497475"
     inkscape:cx="533.29091"
     inkscape:cy="829.4818"
     inkscape:document-units="mm"
     inkscape:current-layer="layer1"
     showgrid="false"
     fit-margin-top="0"
     fit-margin-left="0"
     fit-margin-right="0"
     fit-margin-bottom="0"
     inkscape:window-width="2560"
     inkscape:window-height="1377"
     inkscape:window-x="-8"
     inkscape:window-y="-8"
     inkscape:window-maximized="1" />
  <metadata
     id="metadata5">
    <rdf:RDF>
      <cc:Work
         rdf:about="">
        <dc:format>image/svg+xml</dc:format>
        <dc:type
           rdf:resource="http://purl.org/dc/dcmitype/StillImage" />
        <dc:title></dc:title>
      </cc:Work>
    </rdf:RDF>
  </metadata>
  <g
     inkscape:label="Layer 1"
     inkscape:groupmode="layer"
     id="layer1"
     transform="translate(122.39976,31.027387)">
    <path
       style="fill:#0d3d36;fill-opacity:1;stroke:#010f0d;stroke-width:10.06499958;stroke-linecap:butt;stroke-linejoin:miter;stroke-miterlimit:4;stroke-dasharray:none;stroke-opacity:1"
       d="m -115.66071,3.3124997 28.348211,-27.5922617 85.0446419,69.925593 41.1994051,3.779764 98.273812,98.651785 21.54464,-1.5119 38.93155,39.30952 -6.80358,30.23809 24.19048,24.94643 -48.00298,67.27975 -21.54464,21.16667 -45.735116,-45.35712 -2.267858,-17.38691 -27.214284,-26.45834 -8.315479,8.31547 -16.630951,-0.75595 -12.851191,-12.47321 -3.023809,-13.98512 -80.886902,-81.26488 10.205355,-41.199404 z"
       id="path4529"
       inkscape:connector-curvature="0" />
    <path
       style="fill:none;stroke:#010f0d;stroke-width:10.06499958;stroke-linecap:butt;stroke-linejoin:miter;stroke-miterlimit:4;stroke-dasharray:none;stroke-opacity:1"
       d="m 108.18829,187.98629 23.8125,-23.8125 15.49702,-0.75595 25.70238,25.70238 -5.66964,22.30059 -10.96131,10.96131 -22.3006,-21.54464 -13.22916,-0.75595 z"
       id="path4533"
       inkscape:connector-curvature="0" />
    <path
       style="fill:none;stroke:#010f0d;stroke-width:10.06499958;stroke-linecap:butt;stroke-linejoin:miter;stroke-miterlimit:4;stroke-dasharray:none;stroke-opacity:1"
       d="m 165.40027,238.52439 12.47321,-12.47321 17.3869,16.63095 -12.85119,13.22917 z"
       id="path4537"
       inkscape:connector-curvature="0" />
    <path
       style="fill:#246b61;fill-opacity:1;stroke:#246b61;stroke-width:0.26499999;stroke-linecap:butt;stroke-linejoin:miter;stroke-miterlimit:4;stroke-dasharray:none;stroke-opacity:1"
       d="m 27.15252,169.22937 2.882069,6.4256 4.960937,4.96094 -3.827009,10.91406 -0.661459,4.63021 4.110492,4.06324 9.969121,-9.73288 1.74814,2.3151 -1.559152,7.70126 2.740327,1.37017 3.354539,-2.92932 0.236236,-4.34672 4.44122,3.63802 -3.165551,-4.96094 4.535714,-0.18899 2.976563,-2.97656 -1.228424,-3.30729 -8.504463,1.84263 -2.504092,-1.70089 9.874628,-9.63839 -4.063244,-4.8192 -4.063244,0.47247 -10.772322,4.15774 -5.008184,-4.86645 z"
       id="path4539-6"
       inkscape:connector-curvature="0" />
    <path
       style="fill:#246b61;fill-opacity:1;stroke:#246b61;stroke-width:0.26499999;stroke-linecap:butt;stroke-linejoin:miter;stroke-miterlimit:4;stroke-dasharray:none;stroke-opacity:1"
       d="m 119.01266,251.62515 2.88207,6.4256 4.96094,4.96094 -3.82701,10.91406 -0.66146,4.63021 4.11049,4.06324 9.96913,-9.73288 1.74814,2.3151 -1.55915,7.70126 2.74032,1.37017 3.35454,-2.92932 0.23624,-4.34672 4.44122,3.63802 -3.16555,-4.96094 4.53571,-0.18899 2.97657,-2.97656 -1.22843,-3.30729 -8.50446,1.84263 -2.50409,-1.70089 9.87462,-9.63839 -4.06324,-4.8192 -4.06324,0.47247 -10.77233,4.15774 -5.00818,-4.86645 z"
       id="path4539-6-2"
       inkscape:connector-curvature="0" />
    <path
       style="fill:#246b61;fill-opacity:1;stroke:#246b61;stroke-width:0.26499999;stroke-linecap:butt;stroke-linejoin:miter;stroke-miterlimit:4;stroke-dasharray:none;stroke-opacity:1"
       d="m 8.2656393,97.977833 2.8820697,6.425597 4.96094,4.96094 -3.82701,10.91406 -0.66146,4.63021 4.11049,4.06323 9.969125,-9.73287 1.74814,2.3151 -1.559152,7.70125 2.740327,1.37018 3.354539,-2.92933 0.236236,-4.34671 4.441219,3.63801 -3.16555,-4.96093 4.535713,-0.18899 2.976565,-2.97656 -1.228426,-3.30729 -8.504462,1.84263 -2.504092,-1.70089 9.874627,-9.63839 -4.063244,-4.8192 -4.063243,0.47247 -10.772322,4.15774 -5.00818,-4.86645 z"
       id="path4539-6-1"
       inkscape:connector-curvature="0" />
  </g>
</svg>
